<svg width="512" height="512" xmlns="http://www.w3.org/2000/svg">

 <g>
  <title>background</title>
  <rect fill="none" id="canvas_background" height="402" width="582" y="-1" x="-1"/>
 </g>
 <g>
  <title>Layer 1</title>
  <path fill="#ffaa56" id="svg_2" d="m390.4,335.9c-15.1,4.1 -32.9,6.4 -51.8,6.4c-23.7,0 -46.2,-3.6 -63.4,-10.1c-8.3,-3.1 -14.5,-6.7 -19.2,-10.3c-4.7,3.6 -11,7.2 -19.2,10.3c-17.1,6.5 -39.6,10.1 -63.4,10.1c-18.9,0 -36.8,-2.2 -51.8,-6.4l-6.3,3.6c-1.5,0.8 -3,1.6 -4.5,2.4l11.6,69.2l267.2,0l11.6,-69.2c-1.5,-0.7 -3,-1.5 -4.5,-2.4l-6.3,-3.6z" class="st1"/>
  <path fill="#7f3f00" id="svg_3" d="m433,216.1c-6.9,0 -13.5,1.2 -19.6,3.3c0,0 0,0 0,0c-2.9,-21.8 -21.6,-38.7 -44.2,-38.7c-1.2,0 -2.4,0.1 -3.5,0.1l0,0c-14.9,-46.3 -58.4,-79.8 -109.7,-79.8s-94.8,33.5 -109.6,79.9l0,0c-1.2,-0.1 -2.3,-0.1 -3.5,-0.1c-22.6,0 -41.3,16.9 -44.2,38.7c0,0 0,0 0,0c-6.1,-2.2 -12.8,-3.3 -19.6,-3.3c-32.8,0 -59.4,26.6 -59.4,59.4c0,32.8 26.6,59.5 59.4,59.5c10.7,0 20.7,-2.8 29.4,-7.7l-3.2,-12.8c14.9,8.3 39.9,13.7 68.2,13.7c45.6,0 82.6,-14 82.6,-31.4c0,17.3 37,31.4 82.6,31.4c28.4,0 53.4,-5.4 68.3,-13.7l-3.2,12.8c8.7,4.9 18.7,7.7 29.4,7.7c32.8,0 59.4,-26.6 59.4,-59.5c-0.1,-32.8 -26.7,-59.5 -59.6,-59.5zm-370.6,76.9c-0.8,0.3 -1.7,0.5 -2.6,0.5c-2.5,0 -4.8,-1.3 -6.1,-3.5c-2.5,-4.4 -3.8,-9.3 -3.8,-14.4c0,-0.3 0,-0.6 0,-0.9c0.1,-3.5 2.8,-6.4 6.3,-6.8c3.5,-0.4 6.7,1.9 7.5,5.3l2.9,11.6c0.8,3.4 -1,6.9 -4.2,8.2zm127.8,-103.1c-1.1,2.7 -3.7,4.4 -6.5,4.4c-0.9,0 -1.7,-0.2 -2.6,-0.5c-3.6,-1.4 -5.4,-5.5 -3.9,-9.1c12.9,-32.4 43.8,-53.4 78.8,-53.4c3.9,0 7,3.1 7,7c0,3.9 -3.1,7 -7,7c-29.2,0 -55,17.5 -65.8,44.6zm75.2,68.4c-9.9,0 -18,-8.1 -18,-18c0,-9.9 8.1,-18 18,-18c9.9,0 18,8.1 18,18c0,9.9 -8,18 -18,18zm5.3,-57.5c-9.9,0 -18,-8.1 -18,-18c0,-9.9 8.1,-18 18,-18c9.9,0 18,8.1 18,18c0,10 -8.1,18 -18,18zm53.1,35.2c-11.5,0 -20.8,-9.3 -20.8,-20.8s9.3,-20.8 20.8,-20.8s20.8,9.3 20.8,20.8s-9.4,20.8 -20.8,20.8zm134.6,53.8c-1.3,2.3 -3.6,3.6 -6.1,3.6c-0.9,0 -1.7,-0.2 -2.6,-0.5c-3.3,-1.3 -5.1,-4.8 -4.2,-8.2l2.8,-11.3c0.8,-3.4 4.1,-5.7 7.6,-5.3c3.5,0.4 6.1,3.3 6.2,6.8c0,0.2 0,0.4 0,0.7c0,4.9 -1.3,9.8 -3.7,14.2z" class="st0"/>
 </g>
</svg>