<?xml version="1.0"?>
<svg xmlns="http://www.w3.org/2000/svg" viewBox="0 0 50 50">
    <path style="text-indent:0;text-align:start;line-height:normal;text-transform:none;block-progression:tb;-inkscape-font-specification:Sans" d="M 24.875 2 A 1.0001 1.0001 0 0 0 24.5625 2.09375 L 2.5625 13.09375 A 1.0001 1.0001 0 0 0 2 14 L 2 19 A 1.0001 1.0001 0 0 0 3.4375 19.90625 L 4 19.625 L 4 47 A 1.0001 1.0001 0 0 0 5 48 L 45 48 A 1.0001 1.0001 0 0 0 46 47 L 46 19.625 L 46.5625 19.90625 A 1.0001 1.0001 0 0 0 48 19 L 48 14 A 1.0001 1.0001 0 0 0 47.4375 13.09375 L 25.4375 2.09375 A 1.0001 1.0001 0 0 0 24.875 2 z M 25 4.125 L 46 14.625 L 46 17.375 L 45.5625 17.15625 L 45.46875 17.09375 A 1.0001 1.0001 0 0 0 45.28125 17.03125 L 25.4375 7.09375 A 1.0001 1.0001 0 0 0 24.5625 7.09375 L 4.78125 17 A 1.0001 1.0001 0 0 0 4.59375 17.0625 A 1.0001 1.0001 0 0 0 4.40625 17.15625 A 1.0001 1.0001 0 0 0 4.34375 17.21875 L 4 17.375 L 4 14.625 L 25 4.125 z M 25 9.125 L 44 18.625 L 44 46 L 6 46 L 6 18.625 L 25 9.125 z M 20.8125 16 A 1.0001 1.0001 0 0 0 20 17 L 20 28.9375 C 18.232538 30.404351 17 32.528268 17 35 C 17 39.406438 20.593562 43 25 43 C 29.406438 43 33 39.406438 33 35 C 33 32.528268 31.767462 30.404351 30 28.9375 L 30 25 L 32 25 A 1.0001 1.0001 0 1 0 32 23 L 30 23 L 30 21 L 32 21 A 1.0001 1.0001 0 1 0 32 19 L 30 19 L 30 17 A 1.0001 1.0001 0 0 0 29 16 L 21 16 A 1.0001 1.0001 0 0 0 20.90625 16 A 1.0001 1.0001 0 0 0 20.8125 16 z M 22 18 L 28 18 L 28 19.53125 A 1.0043849 1.0043849 0 0 0 28 20.40625 L 28 23.53125 A 1.0043849 1.0043849 0 0 0 28 24.40625 L 28 29.25 A 1.0001 1.0001 0 0 0 28.4375 30.09375 C 29.992395 31.179259 31 32.955053 31 35 C 31 38.325562 28.325562 41 25 41 C 21.674438 41 19 38.325562 19 35 C 19 32.955053 20.007605 31.179259 21.5625 30.09375 A 1.0001 1.0001 0 0 0 22 29.25 L 22 18 z M 24 22 L 24 31.15625 C 22.275691 31.600922 21 33.136812 21 35 C 21 37.209139 22.790861 39 25 39 C 27.209139 39 29 37.209139 29 35 C 29 33.136812 27.724309 31.600922 26 31.15625 L 26 22 L 24 22 z"/>
</svg>
